<?xml version="1.0" encoding="UTF-8" standalone="no"?>
<!-- Created with Inkscape (http://www.inkscape.org/) -->

<svg
   width="32"
   height="32"
   viewBox="0 0 32 32.000001"
   version="1.1"
   id="svg5"
   xmlns="http://www.w3.org/2000/svg"
   xmlns:svg="http://www.w3.org/2000/svg">
  <defs
     id="defs2" />
  <g
     id="layer3"
     style="display:none"
     transform="translate(-200,36.000003)">
    <rect
       style="display:inline;fill:#2d323b;fill-opacity:1;stroke:none;stroke-width:2.39987;stroke-linecap:round;stroke-miterlimit:4;stroke-dasharray:none;stroke-opacity:1"
       id="rect22657"
       width="200"
       height="208.00002"
       x="184"
       y="-92" />
  </g>
  <g
     id="layer5"
     style="display:inline"
     transform="translate(-200,36.000003)">
    <g
       id="g9268-2-2-5"
       style="display:inline"
       transform="translate(165.1416,-85.783095)">
      <g
         id="g9116-9-7-6"
         transform="translate(24,5.016704)">
        <path
           style="color:#000000;display:inline;fill:#ffffff;fill-opacity:1"
           d="m 33.01563,46.549479 c 0,3.07669 -0.8509,5.481687 -2.21485,7.376727 -1.36394,1.89503 -3.3201,3.55681 -5.44726,5.33007 -2.12717,1.77326 -4.42516,3.65721 -6.25196,6.19532 C 17.27476,67.989706 16,70.966946 16,74.983296 h 4.69922 c 0,-3.07668 0.85285,-5.37671 2.2168,-7.27175 1.36395,-1.89504 3.3201,-3.55682 5.44726,-5.33008 2.12717,-1.77326 4.42516,-3.6572 6.25196,-6.19531 1.8268,-2.53811 3.10156,-5.620317 3.10156,-9.636677 z"
           id="path170-3-3-8-5-73-3-3-3" />
        <path
           style="color:#000000;fill:#ffffff;fill-opacity:1;stroke-linecap:round"
           d="m 20.388672,70.693359 c -0.635433,-2.16e-4 -1.020686,0.514958 -1.02047,1.150391 -2.16e-4,0.635433 0.385037,1.150607 1.02047,1.150391 h 12.939453 c 0.635433,2.16e-4 1.150607,-0.514958 1.150391,-1.150391 2.16e-4,-0.635433 -0.514958,-1.150607 -1.150391,-1.150391 z"
           id="path4334-0-9-9-6-6-8" />
        <path
           style="color:#000000;fill:#ffffff;fill-opacity:1;stroke-linecap:round"
           d="m 21.75,66.617187 c -0.607971,2.15e-4 -0.954312,0.557976 -0.953448,1.165947 2.16e-4,0.607208 0.34624,1.035009 0.953448,1.035225 h 10.216797 c 0.607208,-2.16e-4 1.099393,-0.492401 1.099609,-1.099609 8.64e-4,-0.607971 -0.491638,-1.101348 -1.099609,-1.101563 z"
           id="path4334-9-1-4-0-1-5" />
        <path
           style="color:#000000;fill:#ffffff;fill-opacity:1;stroke-linecap:round"
           d="m 21.75,53.023437 c -0.607971,2.15e-4 -1.100473,0.493592 -1.099609,1.101563 2.16e-4,0.607208 0.492401,1.099393 1.099609,1.099609 h 10.216797 c 0.607208,-2.16e-4 0.953232,-0.597962 0.953448,-1.20517 8.64e-4,-0.607971 -0.345477,-0.995787 -0.953448,-0.996002 z"
           id="path4334-0-6-6-2-6" />
        <path
           style="color:#000000;fill:#ffffff;fill-opacity:1;stroke-linecap:round;-inkscape-stroke:none"
           d="m 20.388672,48.787109 c -0.634671,-2.16e-4 -1.149529,0.513768 -1.150391,1.148438 -2.16e-4,0.635432 0.514959,1.150606 1.150391,1.15039 h 12.939453 c 0.635432,2.16e-4 1.020686,-0.497733 1.02047,-1.133165 -8.62e-4,-0.63467 -0.385799,-1.165879 -1.02047,-1.165663 z"
           id="path4334-9-3-2-9-1" />
        <path
           style="color:#000000;fill:#ffffff;fill-opacity:1"
           d="m 16,46.549479 c 0,4.01636 1.27476,7.098567 3.10156,9.636677 1.8268,2.53811 4.12479,4.42205 6.25196,6.19531 2.12716,1.77326 4.08332,3.65601 5.44726,5.55105 1.36395,1.89504 2.21485,3.9741 2.21485,7.05078 h 4.70117 c 0,-4.01635 -1.27476,-7.03779 -3.10156,-9.5759 -1.8268,-2.53811 -4.12479,-4.42206 -6.25196,-6.19532 -2.12716,-1.77326 -4.08331,-3.43504 -5.44726,-5.33007 -1.36395,-1.89504 -2.2168,-4.255837 -2.2168,-7.332527 z"
           id="path170-9-6-61-6-6-3-1" />
      </g>
    </g>
  </g>
</svg>
