<svg width="1119" height="398" viewBox="0 0 1119 398" fill="none" xmlns="http://www.w3.org/2000/svg">
<path d="M468 121.77V285.78C468 293.48 469.65 298.98 472.95 302.28C476.25 305.58 481.86 307.23 489.78 307.23H514.2L517.5 328.68C513.98 329.56 509.91 330.33 505.29 330.99C500.67 331.65 496.16 332.09 491.76 332.31C487.36 332.75 483.84 332.97 481.2 332.97C467.78 332.97 457.55 329.23 450.51 321.75C443.47 314.27 439.95 303.49 439.95 289.41V121.77H468ZM519.15 169.29V191.4H410.91V170.94L442.59 169.29H519.15ZM629.324 165.33C641.204 165.33 651.214 166.98 659.354 170.28C667.714 173.36 673.984 178.64 678.164 186.12C682.344 193.6 684.434 203.83 684.434 216.81V330H662.324L658.034 295.02L656.054 291.39V216.81C656.054 206.91 653.744 199.87 649.124 195.69C644.724 191.29 636.144 189.09 623.384 189.09C615.024 189.09 604.464 189.53 591.704 190.41C579.164 191.29 566.734 192.28 554.414 193.38L551.774 172.59C559.254 171.27 567.394 170.06 576.194 168.96C585.214 167.86 594.344 166.98 603.584 166.32C612.824 165.66 621.404 165.33 629.324 165.33ZM671.234 231L670.904 252.12L594.014 252.45C586.314 252.67 580.924 254.76 577.844 258.72C574.764 262.46 573.224 267.74 573.224 274.56V284.79C573.224 293.15 575.204 299.31 579.164 303.27C583.124 307.01 589.504 308.88 598.304 308.88C604.464 308.88 611.394 307.78 619.094 305.58C627.014 303.16 634.934 299.53 642.854 294.69C650.774 289.85 658.034 283.69 664.634 276.21V297C662.214 300.08 658.694 303.71 654.074 307.89C649.674 311.85 644.284 315.81 637.904 319.77C631.744 323.51 624.814 326.7 617.114 329.34C609.634 331.76 601.494 332.97 592.694 332.97C583.234 332.97 574.874 331.32 567.614 328.02C560.354 324.5 554.634 319.44 550.454 312.84C546.494 306.02 544.514 297.77 544.514 288.09V270.6C544.514 258.06 548.364 248.38 556.064 241.56C563.984 234.52 574.984 231 589.064 231H671.234ZM793.937 97.68C797.237 97.68 801.307 97.79 806.147 98.01C810.987 98.01 815.937 98.23 820.997 98.67C826.057 98.89 830.457 99.33 834.197 99.99L832.217 120.78H803.837C793.277 120.78 785.797 122.65 781.397 126.39C777.217 129.91 775.127 137.06 775.127 147.84V330H747.077V144.54C747.077 134.64 748.727 126.17 752.027 119.13C755.547 112.09 760.717 106.81 767.537 103.29C774.577 99.55 783.377 97.68 793.937 97.68ZM902.837 93.39C906.357 93.39 910.867 93.5 916.367 93.72C921.867 93.72 927.477 93.94 933.197 94.38C938.917 94.6 943.867 95.04 948.047 95.7L946.067 116.49H912.737C902.177 116.49 894.807 118.58 890.627 122.76C886.447 126.94 884.357 133.87 884.357 143.55V330H855.977V140.58C855.977 130.46 857.517 121.99 860.597 115.17C863.677 108.13 868.627 102.74 875.447 99C882.267 95.26 891.397 93.39 902.837 93.39ZM935.507 169.29V191.4H718.037V170.94L748.727 169.29H935.507ZM1111.71 169.29L1047.36 338.91C1044.72 345.95 1041.42 352.88 1037.46 359.7C1033.5 366.52 1028.66 372.68 1022.94 378.18C1017.44 383.9 1010.84 388.52 1003.14 392.04C995.656 395.56 986.966 397.54 977.066 397.98L974.426 379.5C987.406 375.32 997.416 369.71 1004.46 362.67C1011.5 355.63 1017.11 347.05 1021.29 336.93L1029.21 317.79C1030.97 313.39 1032.73 308.55 1034.49 303.27C1036.25 297.99 1037.9 293.26 1039.44 289.08L1081.35 169.29H1111.71ZM979.376 169.29L1021.95 289.08C1023.05 292.38 1024.15 295.68 1025.25 298.98C1026.35 302.06 1027.23 305.25 1027.89 308.55H1035.48L1026.24 330H1017.66C1015.46 330 1013.37 329.34 1011.39 328.02C1009.63 326.7 1008.42 324.94 1007.76 322.74L949.346 169.29H979.376Z" fill="#5E5D5D"/>
<circle cx="175" cy="217" r="175" fill="#FFB4FC"/>
<path d="M118.286 371.428C149.909 313.946 137.776 279.536 127.756 269.516L126.282 268.041C116.262 258.022 81.8523 245.889 24.3699 277.512C28.9528 287.884 30.1562 295.034 37.7738 305.74C45.3915 316.445 59.849 317.415 70.349 326.886C79.8196 337.386 81.0211 352.075 91.727 359.693C102.433 367.31 107.914 366.845 118.286 371.428Z" fill="white"/>
<path d="M325.31 164.404C267.828 196.027 233.418 183.894 223.399 173.874L221.924 172.399C211.904 162.38 199.771 127.97 231.394 70.4876C241.766 75.0706 248.916 76.2739 259.622 83.8916C270.328 91.5092 271.297 105.967 280.768 116.467C291.268 125.937 305.957 127.139 313.575 137.845C321.193 148.551 320.727 154.032 325.31 164.404Z" fill="white"/>
<rect width="146.588" height="164.294" rx="50" transform="matrix(-0.707107 -0.707107 -0.707107 0.707107 285.492 214.121)" fill="white"/>
</svg>
